<svg id="图层_1" data-name="图层 1" xmlns="http://www.w3.org/2000/svg" viewBox="0 0 600 600"><title>画板 1</title><path id="path1117" d="M300.15.13A8.52,8.52,0,0,0,292.78,4l-15.6,25.2-7.35.72L249.62,8.21a7.67,7.67,0,0,0-2.9-1.86l-.06,0,0,0A7.63,7.63,0,0,0,245.46,6a9.08,9.08,0,0,0-2-.28c-3.61-.1-7.33,1.86-8.64,5.39L224.52,38.75l-7,2.11L193.67,23.68a7.81,7.81,0,0,0-4.1-1.43c-4.37-.42-9.08,2.51-9.82,7L175,58.48,168.52,62,141.8,49.77a7.46,7.46,0,0,0-2.27-.62c-5-.77-10.48,3.49-10.27,8.77l1,29.63-5.69,4.67-28.86-6.8C89.89,84.05,83.93,90,85.31,95.87l6.81,28.85-4.68,5.68-29.63-1c-6-.23-10.7,6.78-8.19,12.27l12.27,26.93-3.51,6.55-29.19,4.75c-5.93,1-9.17,8.76-5.65,13.63l17.28,24-2.18,7.15L11,235c-5.63,2.1-7.28,10.36-2.87,14.46l21.66,20.21L29,277,3.83,292.6c-5.11,3.16-5.11,11.6,0,14.74L29,323l.72,7.34L8.1,350.49C3.69,354.59,5.33,362.85,11,365l27.7,10.35,2.16,7.14-17.26,24c-3.53,4.88-.3,12.67,5.64,13.62l29.19,4.75,3.51,6.56L49.63,458.3c-2.23,4.86,1.25,10.91,6.23,12.05a7.53,7.53,0,0,0,2.23.26l29.41-1,4.62,5.64-6.8,28.86c-1.2,5.13,3.22,10.33,8.28,10.6a7.69,7.69,0,0,0,2.43-.14l28.85-6.79,5.69,4.66-1,29.64c-.23,6,6.79,10.69,12.26,8.19L168.72,538l6.55,3.52L180,570.68c1,5.94,8.76,9.15,13.64,5.66l24-17.29,7.15,2.17,10.35,27.68c2.1,5.62,10.36,7.28,14.46,2.87l20.21-21.65,7.35.73,15.59,25.2c3.14,5.08,11.6,5.09,14.75,0l15.6-25.2,7.34-.73,20.2,21.65c4.1,4.41,12.36,2.75,14.46-2.87l10.35-27.68,7.15-2.17,24,17.29c4.88,3.49,12.66.27,13.63-5.66L425,541.5l6.56-3.52,26.92,12.27c5.47,2.5,12.48-2.18,12.26-8.19l-1-29.64,5.69-4.66,28.86,6.79c5.86,1.37,11.8-4.56,10.43-10.41l-6.8-28.87,4.67-5.69,29.63,1c6,.24,10.7-6.79,8.19-12.26L538.1,431.43l3.51-6.57,29.19-4.75c5.94-.95,9.17-8.73,5.65-13.62l-17.27-24,2.17-7.15L589,365c5.63-2.11,7.27-10.37,2.86-14.46l-21.65-20.21L571,323l25.2-15.6c5.11-3.14,5.11-11.59,0-14.74L571,277l-.72-7.33,21.66-20.21c4.41-4.11,2.76-12.36-2.87-14.46l-27.68-10.36-2.18-7.15,17.28-24c3.52-4.88.28-12.66-5.65-13.64l-29.19-4.75-3.51-6.55,12.27-26.93c2.51-5.48-2.16-12.49-8.19-12.27l-29.63,1-4.68-5.68,6.81-28.86c1.38-5.86-4.58-11.82-10.44-10.44l-28.86,6.8L469.7,87.6l1-29.63c.23-6-6.79-10.69-12.26-8.2L431.56,62.05,425,58.53l-4.76-29.2c-1-5.92-8.76-9.16-13.64-5.65L382.62,41l-7.14-2.16L365.13,11.1c-2.1-5.64-10.37-7.27-14.47-2.89l-20.2,21.68-7.33-.72L307.52,4A8.52,8.52,0,0,0,300.15.13ZM299.2,53C308.11,53,317,58.91,317,70.8c0,23.76-35.65,23.76-35.65,0C281.37,58.91,290.29,53,299.2,53Zm41.37,29.36a219.49,219.49,0,0,1,150.24,107l-21,47.49a16.29,16.29,0,0,0,8.27,21.47l40.48,18c.32,3.17.56,6.34.74,9.51a220.13,220.13,0,0,1-.27,28.6l.09.28a219.24,219.24,0,0,1-43.23,115.08c-2.61,3.43-5.3,6.8-8.11,10.08-.28.32-.54.66-.83,1-3.3,3.81-6.72,7.52-10.28,11.09l-37.7-8.11a16.26,16.26,0,0,0-19.31,12.51l-8.93,41.76a219.5,219.5,0,0,1-183-.88l-8.94-41.76a16.23,16.23,0,0,0-19.29-12.49l-36.87,7.91c-3.68-3.79-7.19-7.74-10.59-11.78l-.26.07q-3.91-4.61-7.58-9.43A219.21,219.21,0,0,1,80.91,314.62l.09-.28a220.14,220.14,0,0,1-.27-28.6c.18-3.18.42-6.35.74-9.51l40.48-18a16.3,16.3,0,0,0,8.27-21.48l-21-47.48a219,219,0,0,1,71-75.12l.12.1a219.38,219.38,0,0,1,79.15-31.89l27.45,28.8a16.22,16.22,0,0,0,23,.52ZM88.16,215.15c8.91,0,17.83,5.94,17.83,17.83,0,23.76-35.66,23.76-35.66,0C70.33,221.09,79.24,215.15,88.16,215.15Zm423.68,0c8.92,0,17.83,5.94,17.83,17.82,0,23.77-35.66,23.77-35.66,0C494,221.14,502.93,215.2,511.84,215.2ZM167.13,465.55c8.91,0,17.83,5.95,17.83,17.83,0,23.77-35.65,23.77-35.65,0C149.31,471.5,158.22,465.55,167.13,465.55Zm264.13.84c8.91,0,17.82,5.94,17.82,17.82,0,23.77-35.66,23.77-35.66,0C413.42,472.33,422.35,466.39,431.26,466.39Z"/><path id="surface1" d="M300,115.21,289,131.36l-35.26,51-29.32-14.87-19.55-9.78v65.44L147.88,234.6l-20.4,3.83,11.91,17,35.69,51.85-21.67,27.19L139,352.74l22.95,3.82,29.31,5.1v82.86l18.7-7.24,57.79-22.93,20.81,31.45,11.48,17,11.48-17,20.81-31.45,57.79,22.95,18.7,7.2V361.66l29.31-5.1,23-3.82-14.45-18.28-21.66-27.19,35.69-51.85,11.9-17-20.4-3.81-56.94-11.5V157.7l-19.55,9.78-29.32,14.86-35.26-51Zm0,47.59,21.67,31.45-21.67,11-21.67-11.06Zm-68,39.09,68,34,68-34v77.76l3,3.82,39.94,49.71L352.27,343l-6,1.28-3.4,4.66L300,413.5l-42.91-64.58-3.4-4.67-6-1.28L189.1,333.2,229,283.49l3-3.82Zm-27.19,48.87V270.3L192.5,285.59,173,257.12Zm190.36,0,31.87,6.38L407.5,285.59,395.18,270.3Zm-136,10.62v27.19h81.58V261.38Zm0,40.79v27.19h81.58V302.17Zm-40.79,63.74,19.11,3.4L252,391l-33.57,13.18Zm163.16,0v38.24L348,391l14.46-21.66Z"/></svg>